<?xml version="1.0" standalone="no"?>
<!DOCTYPE svg PUBLIC "-//W3C//DTD SVG 20010904//EN"
 "http://www.w3.org/TR/2001/REC-SVG-20010904/DTD/svg10.dtd">
<svg version="1.0" xmlns="http://www.w3.org/2000/svg"
 width="617.000000pt" height="617.000000pt" viewBox="0 0 617.000000 617.000000"
 preserveAspectRatio="xMidYMid meet">
<metadata>
Created by potrace 1.14, written by Peter Selinger 2001-2017
</metadata>
<g transform="translate(0.000000,617.000000) scale(0.100000,-0.100000)"
fill="#000000" stroke="none">
<path d="M2805 5863 c-16 -2 -90 -13 -164 -23 -74 -11 -149 -20 -168 -20 -62
0 -313 -67 -508 -135 -256 -89 -423 -125 -645 -139 l-175 -11 -3 -2177 c-1
-1198 -3 -2178 -5 -2178 -126 -12 -261 -30 -267 -36 -4 -5 -10 -120 -13 -256
l-5 -247 43 -34 c41 -31 150 -126 219 -190 17 -16 46 -41 65 -55 19 -15 44
-36 56 -47 11 -11 38 -33 59 -50 20 -16 49 -40 64 -53 83 -71 115 -87 182 -86
36 0 103 4 150 8 47 5 101 10 120 11 19 2 62 6 95 9 33 4 83 9 110 11 47 3
113 10 215 21 45 4 140 13 215 19 22 2 40 4 40 5 0 1 20 3 45 5 79 6 184 15
225 19 54 6 147 15 220 22 33 3 78 7 100 9 22 2 67 6 100 9 33 4 85 9 115 12
62 7 103 10 205 18 39 3 90 8 115 11 78 9 143 15 210 20 36 3 79 7 95 10 38 5
198 18 247 19 21 1 38 3 38 6 0 3 15 6 33 6 29 1 87 6 222 19 28 3 77 8 110
10 33 3 76 7 95 10 19 2 69 6 110 10 41 3 86 8 100 10 22 3 59 8 155 20 17 2
48 6 70 9 22 3 65 8 95 11 199 22 303 35 305 37 2 2 6 123 9 271 6 266 6 267
-14 267 -12 0 -60 18 -106 41 -47 22 -94 41 -104 42 -10 1 -21 9 -23 18 -5 17
-132 88 -207 116 -19 7 -70 16 -112 20 -43 3 -78 10 -78 15 0 5 -5 6 -11 3 -6
-4 -16 0 -22 9 -7 8 -55 33 -107 55 l-95 40 3 298 c2 164 7 458 12 653 5 195
12 540 15 765 3 226 7 500 10 610 3 110 7 292 10 405 3 113 7 347 10 520 3
173 8 433 11 578 l5 262 -66 0 c-132 0 -475 69 -597 120 -69 29 -391 150 -408
154 -8 2 -32 10 -52 19 -20 9 -124 30 -232 47 -162 25 -222 30 -353 29 -87 -1
-171 -4 -188 -6z"/>
</g>
</svg>
